<svg id="visual" viewBox="0 0 900 600" width="900" height="600" xmlns="http://www.w3.org/2000/svg" xmlns:xlink="http://www.w3.org/1999/xlink" version="1.1"><rect x="0" y="0" width="900" height="600" fill="#202731"></rect><path d="M0 202L21.5 199.3C43 196.7 86 191.3 128.8 193.8C171.7 196.3 214.3 206.7 257.2 209.2C300 211.7 343 206.3 385.8 198.8C428.7 191.3 471.3 181.7 514.2 188.5C557 195.3 600 218.7 642.8 215.2C685.7 211.7 728.3 181.3 771.2 173.5C814 165.7 857 180.3 878.5 187.7L900 195L900 0L878.5 0C857 0 814 0 771.2 0C728.3 0 685.7 0 642.8 0C600 0 557 0 514.2 0C471.3 0 428.7 0 385.8 0C343 0 300 0 257.2 0C214.3 0 171.7 0 128.8 0C86 0 43 0 21.5 0L0 0Z" fill="#b281f4"></path><path d="M0 176L21.5 172.8C43 169.7 86 163.3 128.8 160.7C171.7 158 214.3 159 257.2 165.3C300 171.7 343 183.3 385.8 180.7C428.7 178 471.3 161 514.2 157.3C557 153.7 600 163.3 642.8 166.7C685.7 170 728.3 167 771.2 159.5C814 152 857 140 878.5 134L900 128L900 0L878.5 0C857 0 814 0 771.2 0C728.3 0 685.7 0 642.8 0C600 0 557 0 514.2 0C471.3 0 428.7 0 385.8 0C343 0 300 0 257.2 0C214.3 0 171.7 0 128.8 0C86 0 43 0 21.5 0L0 0Z" fill="#a06be9"></path><path d="M0 123L21.5 121.7C43 120.3 86 117.7 128.8 115.7C171.7 113.7 214.3 112.3 257.2 108.2C300 104 343 97 385.8 98.5C428.7 100 471.3 110 514.2 115C557 120 600 120 642.8 125.8C685.7 131.7 728.3 143.3 771.2 139C814 134.7 857 114.3 878.5 104.2L900 94L900 0L878.5 0C857 0 814 0 771.2 0C728.3 0 685.7 0 642.8 0C600 0 557 0 514.2 0C471.3 0 428.7 0 385.8 0C343 0 300 0 257.2 0C214.3 0 171.7 0 128.8 0C86 0 43 0 21.5 0L0 0Z" fill="#8d54de"></path><path d="M0 59L21.5 63.7C43 68.3 86 77.7 128.8 84.5C171.7 91.3 214.3 95.7 257.2 93.7C300 91.7 343 83.3 385.8 82C428.7 80.7 471.3 86.3 514.2 90.5C557 94.7 600 97.3 642.8 92.5C685.7 87.7 728.3 75.3 771.2 74.8C814 74.3 857 85.7 878.5 91.3L900 97L900 0L878.5 0C857 0 814 0 771.2 0C728.3 0 685.7 0 642.8 0C600 0 557 0 514.2 0C471.3 0 428.7 0 385.8 0C343 0 300 0 257.2 0C214.3 0 171.7 0 128.8 0C86 0 43 0 21.5 0L0 0Z" fill="#793dd3"></path><path d="M0 59L21.5 58.2C43 57.3 86 55.7 128.8 57.2C171.7 58.7 214.3 63.3 257.2 58.8C300 54.3 343 40.7 385.8 33.7C428.7 26.7 471.3 26.3 514.2 33.2C557 40 600 54 642.8 58.8C685.7 63.7 728.3 59.3 771.2 56.5C814 53.7 857 52.3 878.5 51.7L900 51L900 0L878.5 0C857 0 814 0 771.2 0C728.3 0 685.7 0 642.8 0C600 0 557 0 514.2 0C471.3 0 428.7 0 385.8 0C343 0 300 0 257.2 0C214.3 0 171.7 0 128.8 0C86 0 43 0 21.5 0L0 0Z" fill="#6424c7"></path></svg>