<svg id="visual" viewBox="0 0 900 600" width="900" height="600" xmlns="http://www.w3.org/2000/svg" xmlns:xlink="http://www.w3.org/1999/xlink" version="1.1"><rect x="0" y="0" width="900" height="600" fill="#202731"></rect><path d="M0 396L21.5 398.7C43 401.3 86 406.7 128.8 404.2C171.7 401.7 214.3 391.3 257.2 388.8C300 386.3 343 391.7 385.8 399.2C428.7 406.7 471.3 416.3 514.2 409.5C557 402.7 600 379.3 642.8 382.8C685.7 386.3 728.3 416.7 771.2 424.5C814 432.3 857 417.7 878.5 410.3L900 403L900 601L878.5 601C857 601 814 601 771.2 601C728.3 601 685.7 601 642.8 601C600 601 557 601 514.2 601C471.3 601 428.7 601 385.8 601C343 601 300 601 257.2 601C214.3 601 171.7 601 128.8 601C86 601 43 601 21.5 601L0 601Z" fill="#f481f1"></path><path d="M0 422L21.5 425.2C43 428.3 86 434.7 128.8 437.3C171.7 440 214.3 439 257.2 432.7C300 426.3 343 414.7 385.8 417.3C428.7 420 471.3 437 514.2 440.7C557 444.3 600 434.7 642.8 431.3C685.7 428 728.3 431 771.2 438.5C814 446 857 458 878.5 464L900 470L900 601L878.5 601C857 601 814 601 771.2 601C728.3 601 685.7 601 642.8 601C600 601 557 601 514.2 601C471.3 601 428.7 601 385.8 601C343 601 300 601 257.2 601C214.3 601 171.7 601 128.8 601C86 601 43 601 21.5 601L0 601Z" fill="#db68d4"></path><path d="M0 475L21.5 476.3C43 477.7 86 480.3 128.8 482.3C171.7 484.3 214.3 485.7 257.2 489.8C300 494 343 501 385.8 499.5C428.7 498 471.3 488 514.2 483C557 478 600 478 642.8 472.2C685.7 466.3 728.3 454.7 771.2 459C814 463.3 857 483.7 878.5 493.8L900 504L900 601L878.5 601C857 601 814 601 771.2 601C728.3 601 685.7 601 642.8 601C600 601 557 601 514.2 601C471.3 601 428.7 601 385.8 601C343 601 300 601 257.2 601C214.3 601 171.7 601 128.8 601C86 601 43 601 21.5 601L0 601Z" fill="#c34fb8"></path><path d="M0 539L21.5 534.3C43 529.7 86 520.3 128.8 513.5C171.7 506.7 214.3 502.3 257.2 504.3C300 506.3 343 514.7 385.8 516C428.7 517.3 471.3 511.7 514.2 507.5C557 503.3 600 500.7 642.8 505.5C685.7 510.3 728.3 522.7 771.2 523.2C814 523.7 857 512.3 878.5 506.7L900 501L900 601L878.5 601C857 601 814 601 771.2 601C728.3 601 685.7 601 642.8 601C600 601 557 601 514.2 601C471.3 601 428.7 601 385.8 601C343 601 300 601 257.2 601C214.3 601 171.7 601 128.8 601C86 601 43 601 21.5 601L0 601Z" fill="#aa359d"></path><path d="M0 539L21.5 539.8C43 540.7 86 542.3 128.8 540.8C171.7 539.3 214.3 534.7 257.2 539.2C300 543.7 343 557.3 385.8 564.3C428.7 571.3 471.3 571.7 514.2 564.8C557 558 600 544 642.8 539.2C685.7 534.3 728.3 538.7 771.2 541.5C814 544.3 857 545.7 878.5 546.3L900 547L900 601L878.5 601C857 601 814 601 771.2 601C728.3 601 685.7 601 642.8 601C600 601 557 601 514.2 601C471.3 601 428.7 601 385.8 601C343 601 300 601 257.2 601C214.3 601 171.7 601 128.8 601C86 601 43 601 21.5 601L0 601Z" fill="#921783"></path></svg>